<svg xmlns="http://www.w3.org/2000/svg" viewBox="0 0 48 48" width="34" height="34">
  <path fill="#F05032" d="M46.7 21.9L26.1 1.3c-1.7-1.7-4.5-1.7-6.2 0l-3.8 3.8 5.6 5.6c1.2-.4 2.7-.2 3.8.8 1.1 1.1 1.3 2.7.7 4l5.3 5.3c1.3-.6 2.9-.4 4 .7 1.6 1.6 1.6 4.1 0 5.7s-4.1 1.6-5.7 0c-1.2-1.2-1.4-2.9-.6-4.3l-5-5v13.2c.4.3.7.6 1 .9 1.6 1.6 1.6 4.1 0 5.7s-4.1 1.6-5.7 0c-1.6-1.6-1.6-4.1 0-5.7.4-.4.8-.7 1.3-.9V15.7c-.5-.2-.9-.5-1.3-.9-1.2-1.2-1.4-2.9-.6-4.3L14.7 4.9 1.3 18.3c-1.7 1.7-1.7 4.5 0 6.2l20.6 20.6c1.7 1.7 4.5 1.7 6.2 0l18.6-18.6c1.7-1.7 1.7-4.5 0-4.6z"/>
</svg>
